<svg width="34" height="73" viewBox="0 0 34 73" fill="none" xmlns="http://www.w3.org/2000/svg">
<path d="M10.68 48.9C10.68 50.06 10.8 50.92 11.04 51.48C11.32 52 11.8 52.36 12.48 52.56C13.2 52.76 14.32 52.86 15.84 52.86H23.52C27.48 52.86 29.82 50.32 30.54 45.24C30.54 45.12 30.64 45.08 30.84 45.12C31.08 45.12 31.2 45.18 31.2 45.3C30.84 48.46 30.66 51.06 30.66 53.1C30.66 53.42 30.6 53.66 30.48 53.82C30.36 53.94 30.12 54 29.76 54H2.16C2.08 54 2.04 53.88 2.04 53.64C2.04 53.4 2.08 53.28 2.16 53.28C3.72 53.28 4.86 53.18 5.58 52.98C6.34 52.78 6.84 52.4 7.08 51.84C7.36 51.24 7.5 50.34 7.5 49.14V21.36C7.5 20.16 7.36 19.28 7.08 18.72C6.84 18.16 6.34 17.78 5.58 17.58C4.86 17.34 3.72 17.22 2.16 17.22C2.08 17.22 2.04 17.1 2.04 16.86C2.04 16.62 2.08 16.5 2.16 16.5L5.1 16.56C6.78 16.64 8.1 16.68 9.06 16.68C10.14 16.68 11.52 16.64 13.2 16.56L16.02 16.5C16.1 16.5 16.14 16.62 16.14 16.86C16.14 17.1 16.1 17.22 16.02 17.22C14.46 17.22 13.3 17.34 12.54 17.58C11.82 17.78 11.32 18.18 11.04 18.78C10.8 19.34 10.68 20.22 10.68 21.42V48.9Z" fill="#8A8686"/>
<path d="M30.55 33.25C30.55 33.35 30.45 33.4 30.25 33.4C30.0833 33.4 30 33.35 30 33.25C30 31.55 29.55 30.2 28.65 29.2C27.75 28.2 26.5667 27.7 25.1 27.7H21.65C20.4167 27.7 19.5 27.7833 18.9 27.95C18.3 28.1167 17.8833 28.4167 17.65 28.85C17.4167 29.2833 17.3 29.95 17.3 30.85V41.85H22.75C24.45 41.85 25.65 41.6 26.35 41.1C27.05 40.5667 27.4 39.6667 27.4 38.4C27.4 38.3333 27.5 38.3 27.7 38.3C27.9 38.3 28 38.3333 28 38.4L27.95 42.35C27.95 43.3167 27.9667 44.0333 28 44.5L28.05 46.85C28.05 46.9167 27.95 46.95 27.75 46.95C27.55 46.95 27.45 46.9167 27.45 46.85C27.45 45.35 27.0833 44.3 26.35 43.7C25.65 43.1 24.3833 42.8 22.55 42.8H17.3V53.75C17.3 54.8167 17.45 55.6 17.75 56.1C18.05 56.5667 18.6167 56.9 19.45 57.1C20.3167 57.3 21.6833 57.4 23.55 57.4C23.65 57.4 23.7 57.5 23.7 57.7C23.7 57.9 23.65 58 23.55 58C22.1833 58 21.1167 57.9833 20.35 57.95L16 57.9L12.7 57.95C12.1 57.9833 11.2667 58 10.2 58C10.1333 58 10.1 57.9 10.1 57.7C10.1 57.5 10.1333 57.4 10.2 57.4C11.5 57.4 12.45 57.3167 13.05 57.15C13.6833 56.9833 14.1 56.6667 14.3 56.2C14.5333 55.7 14.65 54.95 14.65 53.95V30.8C14.65 29.8 14.5333 29.0667 14.3 28.6C14.1 28.1333 13.6833 27.8167 13.05 27.65C12.45 27.45 11.5 27.35 10.2 27.35C10.1333 27.35 10.1 27.25 10.1 27.05C10.1 26.85 10.1333 26.75 10.2 26.75H30C30.3 26.75 30.45 26.9 30.45 27.2L30.55 33.25Z" fill="white"/>
</svg>
