<svg width="15" height="15" viewBox="0 0 15 15" fill="none" xmlns="http://www.w3.org/2000/svg">
<path d="M13.625 14.5C14.2452 14.5 14.75 13.9952 14.75 13.375V10.75C14.75 10.1298 14.2452 9.625 13.625 9.625C12.7475 9.625 11.885 9.487 11.06 9.21475C10.8628 9.15248 10.6524 9.14491 10.4512 9.19286C10.25 9.24081 10.0657 9.34247 9.91775 9.487L8.83775 10.567C6.97108 9.55361 5.43802 8.02107 4.424 6.15475L5.495 5.077C5.804 4.7905 5.915 4.35475 5.783 3.9355C5.5113 3.10922 5.37356 2.2448 5.375 1.375C5.375 0.75475 4.87025 0.25 4.25 0.25H1.625C1.00475 0.25 0.5 0.75475 0.5 1.375C0.5 8.6125 6.3875 14.5 13.625 14.5ZM1.625 1H4.25C4.34946 1 4.44484 1.03951 4.51516 1.10984C4.58549 1.18016 4.625 1.27554 4.625 1.375C4.625 2.33275 4.775 3.27325 5.06975 4.165C5.09141 4.22971 5.09394 4.29929 5.07704 4.36541C5.06015 4.43152 5.02455 4.49136 4.9745 4.53775L3.5075 6.01225C4.73525 8.43325 6.54875 10.2467 8.981 11.485L10.4427 10.0225C10.4926 9.97314 10.555 9.93828 10.6232 9.92163C10.6913 9.90498 10.7627 9.90719 10.8298 9.928C11.7267 10.225 12.6672 10.375 13.625 10.375C13.8313 10.375 14 10.5437 14 10.75V13.375C14 13.5813 13.8313 13.75 13.625 13.75C6.8015 13.75 1.25 8.1985 1.25 1.375C1.25 1.27554 1.28951 1.18016 1.35984 1.10984C1.43016 1.03951 1.52554 1 1.625 1Z" fill="#43FFD2"/>
</svg>
