<svg width="299" height="294" viewBox="0 0 299 294" fill="none" xmlns="http://www.w3.org/2000/svg">
<path d="M90.9094 45.5342C91.0612 45.4836 91.4154 45.5341 91.719 45.4329C93.6416 45.129 94.7042 45.7866 94.7552 47.9622C94.9072 49.4295 94.8063 51.1498 94.5029 52.7689C93.4916 56.8168 92.531 61.0164 91.5197 65.0643C90.2555 69.8712 88.5865 74.4757 86.9682 79.232C85.6027 83.2294 84.0855 87.2773 82.6188 91.477C81.7085 94.3106 80.4441 97.0936 79.382 99.9778C78.4211 102.66 77.3084 105.392 76.3475 108.074C75.2348 110.806 74.1221 113.538 73.2118 116.372C70.228 125.632 66.8902 135.347 63.2487 144.657C63.0464 145.062 62.9959 145.416 62.9959 145.922C62.9454 146.276 63.0466 146.58 63.4514 146.782C63.9069 147.136 63.9068 146.63 64.2103 146.529C65.121 145.719 66.3353 145.82 67.1956 146.883C67.6005 147.591 68.056 148.451 68.4609 149.159C69.0176 150.323 69.726 150.424 70.7884 149.564C72.1543 148.602 72.9636 146.983 73.8741 145.667C75.2905 143.34 77.0611 141.568 78.9328 139.595C79.1858 139.342 79.5905 139.038 79.8941 139.443C80.1472 139.696 79.7424 139.999 79.4389 140.101C77.4154 142.631 75.9485 145.313 74.1275 147.944C73.6217 148.956 72.9135 149.867 72.1546 150.626C70.131 152.144 67.8035 151.74 66.69 149.412C66.3358 148.856 66.2344 148.046 65.7285 148.047C65.0201 147.945 65.0203 148.957 64.6662 149.413C64.2109 150.071 64.0087 150.981 63.9582 151.842C63.9583 152.347 64.009 153.005 63.1488 152.955C62.4911 153.005 62.3392 152.55 62.1367 151.943C61.4277 147.794 61.1235 143.848 61.4265 139.699C61.6279 133.728 62.386 127.91 62.7898 122.04C63.3961 116.272 64.1035 110.302 65.0639 104.584C65.6706 101.346 66.6314 98.1583 67.4404 95.0212C69.0586 89.2529 70.8792 83.5858 73.054 77.9693C75.2794 72.5045 77.3024 66.9386 79.9325 61.6762C82.2086 56.8691 84.7377 52.3151 87.6717 47.9633C88.481 46.8501 89.594 46.1415 90.9094 45.5342ZM62.9444 140.205C63.248 140.103 63.3492 139.901 63.4503 139.698C65.1699 135.246 67.0413 130.742 68.5585 126.188C71.0365 118.953 73.4135 111.919 76.1446 104.937C79.8872 95.424 83.6299 85.9113 86.8159 76.2469C88.9906 69.6184 91.1652 62.9899 92.5808 56.1086C93.1369 53.2245 93.8954 50.4416 93.642 47.6588C93.5406 46.3433 92.6804 45.7869 91.4661 46.1918C90.4036 46.5462 89.4424 47.2041 88.7342 48.1149C86.4579 51.4041 84.5864 54.8955 82.7148 58.387C79.8822 63.5482 77.8086 68.9624 75.5833 74.4272C73.7624 78.5763 72.3464 82.9279 70.8798 87.1276C69.5143 91.1249 68.8572 95.2233 67.6941 99.3218C65.6714 106.406 65.0147 113.54 64.4593 120.978C64.0048 126.189 63.2467 131.502 62.9439 136.663C62.9947 137.826 62.8937 139.041 62.9444 140.205ZM102.614 132.034C101.703 132.338 101.146 132.692 100.489 133.249C96.8969 136.64 92.4954 139.12 88.2456 141.549C86.8291 142.359 85.2606 142.713 83.8437 141.499C83.3883 141.145 83.2872 141.347 83.0848 141.752C82.7814 142.359 82.3261 143.017 82.0732 143.776C81.2639 144.889 80.3025 145.041 79.2905 144.029C77.7723 142.512 77.5696 140.387 79.239 138.818C79.7449 138.312 80.2002 137.654 80.7061 137.148C81.212 136.642 81.7179 136.642 82.1734 136.996C82.7806 137.3 83.0336 137.553 82.3759 138.109C81.3641 138.615 80.8076 139.476 80.0488 140.235C79.8465 140.639 79.6442 141.044 79.6442 141.55C79.7961 142.006 79.948 142.461 80.3022 142.511C80.9094 142.815 80.8587 142.157 80.9598 141.955C81.8703 140.639 82.5785 139.222 83.3372 137.957C83.6407 137.35 83.843 136.945 84.602 137.198C85.1586 137.35 85.3105 137.805 85.2094 138.514C85.1083 139.222 84.7037 140.032 85.3615 140.487C86.1711 140.891 86.8794 140.487 87.5877 140.082C92.2422 137.855 96.4918 134.919 100.792 132.136C101.349 131.782 101.804 131.124 102.563 131.883L102.614 132.034ZM105.457 141.375C103.029 142.185 100.903 140.869 100.903 138.34C100.903 136.316 101.105 134.393 101.155 132.521C101.256 131.813 101.408 131.256 102.268 131.306C102.825 131.458 102.875 132.116 102.724 132.672C102.724 134.696 102.269 136.872 102.623 138.946C102.775 140.414 103.383 140.717 104.9 140.211C106.368 139.553 107.43 138.187 108.543 136.972C109.909 135.505 109.605 135.1 110.465 133.127C110.768 132.519 110.819 132.165 110.009 131.761C109.2 131.356 108.947 130.597 109.301 129.636C109.705 128.826 110.059 127.865 110.413 126.903C110.666 126.144 111.172 125.638 112.083 125.84C113.095 125.84 113.651 126.498 113.652 127.51C113.803 127.965 113.803 128.471 113.601 128.876C113.551 129.736 113.956 129.938 114.512 129.584C115.777 128.825 117.092 128.218 118.509 127.408C120.532 126.396 122.506 125.232 124.529 124.219C124.833 124.118 125.238 123.815 125.339 124.118C125.693 124.675 125.035 124.725 124.884 124.776C121.039 127.408 117.194 130.039 113.096 131.912C112.337 132.165 112.185 132.722 111.882 133.329C110.314 136.719 109.859 138.389 106.773 140.767C106.52 141.02 106.064 141.172 105.457 141.375ZM111.375 130.799C111.982 130.597 112.69 127.662 112.387 127.257C112.134 127.004 111.982 127.055 111.729 127.308C111.172 128.168 110.667 129.18 110.515 130.243C110.515 130.749 110.92 130.951 111.375 130.799ZM144.067 117.872C140.829 120.807 137.389 123.641 133.848 126.171C132.431 126.981 131.217 127.892 129.801 128.702C128.485 129.309 127.17 129.411 125.753 129.209C124.387 129.158 123.729 128.197 123.172 127.033C123.071 126.73 123.122 126.376 123.223 126.173C123.88 124.605 124.69 122.985 125.954 121.72C126.764 120.607 128.029 120.354 128.99 121.214C129.749 121.973 129.749 122.985 128.94 124.098C128.08 125.059 127.017 125.92 125.955 126.78C125.652 126.881 125.196 127.033 125.297 127.337C125.449 127.792 125.854 127.994 126.208 128.045C127.271 128.196 128.333 127.842 129.193 127.387C131.925 125.969 134.354 124.148 136.934 122.275C138.856 120.959 140.88 119.441 142.802 118.125C143.207 117.822 143.511 117.72 144.017 117.72L144.067 117.872ZM212.003 95.5523C211.092 95.856 210.536 96.2103 209.878 96.767C206.286 100.157 201.885 102.637 197.635 105.067C196.218 105.876 194.65 106.231 193.233 105.017C192.778 104.663 192.676 104.865 192.474 105.27C192.171 105.877 191.715 106.535 191.463 107.294C190.653 108.407 189.692 108.559 188.68 107.547C187.162 106.03 186.959 103.905 188.628 102.336C189.134 101.83 189.59 101.172 190.095 100.666C190.601 100.16 191.107 100.16 191.563 100.514C192.17 100.817 192.423 101.07 191.765 101.627C190.753 102.133 190.197 102.993 189.438 103.752C189.236 104.157 189.033 104.562 189.034 105.068C189.185 105.523 189.337 105.979 189.691 106.029C190.299 106.333 190.248 105.675 190.349 105.473C191.26 104.157 191.968 102.74 192.727 101.475C193.03 100.868 193.232 100.463 193.991 100.716C194.548 100.868 194.7 101.323 194.599 102.031C194.498 102.74 194.093 103.549 194.751 104.005C195.56 104.409 196.269 104.004 196.977 103.6C201.632 101.373 205.881 98.4373 210.181 95.6538C210.738 95.2995 211.193 94.6417 211.952 95.4005L212.003 95.5523ZM213.277 96.1395C214.035 95.3805 214.592 94.5202 215.502 93.7105C215.755 93.4575 216.16 93.1539 216.615 93.002C217.981 92.5464 218.386 92.7488 218.791 93.963C219.247 95.329 219.399 95.2784 220.562 94.7217C222.131 93.8613 223.395 92.5962 224.508 91.3817C224.862 90.9263 225.318 90.2684 225.925 90.5719C226.38 90.926 225.925 91.5839 225.571 92.0393C224.256 93.6586 222.789 95.3285 220.866 96.1383C219.298 96.9987 218.083 96.3917 217.274 94.9752C216.919 94.4187 216.666 94.6717 216.262 94.9753C215.199 95.8356 214.592 97.05 213.783 98.1633C213.378 98.9729 212.771 99.6814 212.367 100.491C212.012 100.946 211.405 101.149 210.798 100.845C210.191 100.542 210.191 100.036 210.342 99.4793C210.747 98.1638 211.202 97 210.898 95.5833C210.848 94.9256 211.708 94.4701 212.366 94.4194C213.023 94.3687 213.074 95.0264 213.074 95.5324C213.125 95.6842 213.024 95.8866 213.277 96.1395ZM245.582 83.8474C244.823 85.1125 243.963 86.0739 243.103 87.0354C240.574 90.0716 236.679 94.5753 234.2 97.7632C233.998 98.168 233.644 98.6235 233.644 99.1294C233.847 103.278 233.392 107.478 233.089 111.627C232.887 114.561 232.736 117.648 232.028 120.583C231.219 124.732 230.461 129.032 228.893 132.929C228.134 135.206 227.73 137.533 226.769 139.709C224.948 143.352 223.228 147.299 221.407 150.942C220.042 153.422 218.727 156.053 217.361 158.532C215.894 161.214 214.174 163.643 212.454 166.072C209.267 170.677 205.878 175.18 201.78 179.077C200.111 180.646 198.391 182.063 196.418 183.227C192.32 185.605 188.93 183.531 187.968 179.636C186.905 175.436 187.764 171.439 188.472 167.492C189.23 163.697 190.596 160.206 191.759 156.614C193.782 151.048 196.766 145.836 199.548 140.523C202.28 135.058 205.871 130.149 209.614 125.19C214.724 118.258 220.288 111.679 225.853 105.101C227.472 103.38 229.04 101.508 230.81 99.737C231.569 98.978 231.923 98.0166 231.721 96.9035C231.164 95.2339 230.961 93.6148 230.607 92.0464C230.506 91.7428 230.505 91.2369 230 91.237C229.696 91.3382 229.645 91.6924 229.595 92.0466C229.494 92.249 229.393 92.4514 229.443 92.6031C229.14 93.7163 228.836 94.8295 227.47 94.7791C225.952 94.7793 224.89 94.1217 224.434 92.7557C224.181 92.5028 224.029 92.0474 224.08 91.6932C223.827 90.9343 224.029 90.5295 224.839 90.4282C225.496 90.3775 226.053 90.5292 226.002 91.3894C226.053 92.0471 226.053 93.059 226.762 93.1601C227.47 93.2612 227.419 92.0975 227.571 91.5409C228.178 90.3265 228.633 89.1627 229.088 87.9989C229.24 87.4423 229.493 87.1893 230.049 87.341C230.555 87.3409 230.96 87.5433 231.163 88.1504C231.973 90.0729 232.631 92.0461 232.833 94.1711C232.884 94.3229 232.884 94.3229 232.884 94.3229C233.086 94.93 233.036 95.7902 233.643 96.0936C234.402 96.3465 234.655 95.5875 235.11 94.9297C238.955 90.2742 241.838 87.2886 244.823 84.1005C244.924 83.8981 245.076 83.8475 245.582 83.8474ZM193.433 183.379C195.659 182.468 197.177 181.456 198.745 180.089C201.173 177.761 203.551 175.282 205.675 172.549C208.66 168.855 211.29 165.111 213.87 161.214C217.006 156.458 219.535 151.398 221.913 146.388C223.683 142.593 225.504 138.95 226.667 134.852C228.184 130.298 229.246 125.896 230.207 121.19C231.117 116.839 231.571 112.639 231.773 108.186C231.925 106.112 232.228 103.987 232.025 101.862C231.924 101.558 232.126 101.154 231.57 101.002C231.215 100.951 231.165 101.305 230.861 101.407C226.764 105.809 222.97 110.616 218.973 115.323C215.23 119.776 211.891 124.431 208.451 129.289C205.619 132.932 203.039 136.829 200.864 140.927C198.739 145.178 196.463 149.479 194.389 153.881C192.619 157.676 191.76 161.673 190.495 165.468C189.383 168.706 189.181 172.147 188.928 175.436C188.726 177.359 189.182 179.231 189.739 180.9C190.397 182.873 191.966 184.037 193.433 183.379ZM85.3689 205.42C85.0147 205.369 84.8124 205.774 84.5594 206.027C83.6488 206.837 82.2322 207.141 81.0178 206.534C80.4106 206.23 80.2587 205.775 80.208 205.117C80.2584 203.751 80.6629 202.435 81.2193 201.069C81.6239 200.26 82.484 199.804 83.496 200.31C84.1538 200.765 84.4574 200.664 84.7103 199.905C84.7102 199.399 84.8113 198.691 85.5196 198.792C86.1774 198.741 86.481 199.146 86.8353 199.702C87.5438 200.815 87.4428 202.03 87.5442 203.345C87.14 207.19 86.0275 210.935 85.2692 214.73C85.2186 215.084 85.0163 215.489 85.0164 215.995C85.6235 215.792 85.7752 215.235 85.9775 214.831C88.9112 208.961 92.4521 203.395 95.6388 197.778C95.9422 197.171 96.4481 196.665 97.207 196.412C96.0436 198.486 95.032 200.51 93.8686 202.585C92.3006 205.469 90.7326 208.354 89.1645 211.238C87.7988 213.717 86.4331 216.197 85.0674 218.676C84.4098 219.739 84.157 221.004 84.1066 222.37C84.0055 223.078 83.1961 223.685 83.7528 224.343C84.107 224.9 84.9672 224.95 85.4226 225.304C87.3455 226.518 88.5094 227.985 89.1169 230.313C90.4837 234.917 90.3833 239.673 90.3335 244.581C90.2835 248.477 89.8287 252.17 88.8679 255.864C87.9579 260.215 86.8454 264.466 85.5812 268.767C84.4687 272.511 83.3055 276.103 82.0412 279.898C80.878 282.985 79.9171 286.173 78.3997 289.209C77.7927 290.423 77.1858 291.637 75.8197 292.093C74.2008 292.802 72.6322 292.144 72.3789 290.373C71.8725 287.844 72.3275 285.162 72.7824 282.48C73.8946 276.206 75.3609 269.982 76.473 263.708C77.5344 256.27 78.444 248.883 79.3536 241.496C80.0611 236.537 80.8699 231.882 81.6281 227.076C81.7292 226.367 82.2856 225.507 81.5267 225.254C80.7171 224.85 80.5654 225.912 80.0595 226.418C78.3396 228.341 76.822 230.365 74.6466 231.934C73.9383 232.339 73.3818 232.693 72.5723 232.794C71.8639 232.693 71.5603 232.289 72.0155 231.631C74.1908 229.05 75.86 225.963 79.2497 224.496C80.1604 224.192 80.4638 223.079 81.2226 222.32C82.4367 220.903 83.2966 219.435 83.4987 217.513C84.1053 213.768 84.7119 210.024 85.5208 206.381C85.5714 206.027 85.6219 205.673 85.3689 205.42ZM87.7507 229.756C87.3964 228.694 86.4854 226.974 84.7143 225.709C83.8541 225.153 83.3987 225.305 83.2471 226.367C82.337 230.213 81.8317 234.26 81.2757 238.156C80.5175 242.963 79.7593 247.77 79.1529 252.526C78.2431 258.395 77.6368 264.163 76.5752 270.083C75.6146 274.789 74.6034 279.343 73.9464 283.947C73.6431 286.072 73.4917 288.147 73.6438 290.12C73.6439 290.626 73.7957 291.081 74.2005 291.284C74.7571 291.435 75.0101 291.182 75.4148 290.879C75.9713 290.525 76.4265 289.867 76.73 289.259C77.8934 287.185 78.8544 285.009 79.613 282.732C81.9394 276.053 84.0634 269.273 85.8332 262.442C88.0076 254.802 89.3726 247.262 89.2195 239.218C89.1179 236.384 88.9656 233.399 87.7507 229.756ZM82.8391 205.42C83.1426 205.319 83.3956 205.066 83.5979 204.661C83.8001 203.75 83.9012 203.042 84.1541 202.283C84.3058 201.726 84.2045 201.423 83.8504 201.372C83.2938 201.221 82.9396 201.17 82.5855 201.626C82.2821 202.739 81.9281 203.7 81.9788 204.864C81.9789 205.37 82.2319 205.623 82.8391 205.42ZM105.75 200.478C103.928 201.085 102.259 200.63 101.196 198.961C100.842 198.404 100.791 198.758 100.538 199.011C99.8299 199.922 99.1217 200.833 98.2617 201.795C97.7053 202.655 96.7946 202.959 95.6814 202.655C94.9224 202.402 94.5682 201.846 94.6186 200.986C94.8714 199.721 95.276 198.405 95.9336 197.342C96.1359 196.938 96.3382 196.533 96.9454 196.836C97.5526 197.14 97.5021 197.494 97.1986 198.101C97.0469 198.658 96.794 199.417 96.4906 200.024C96.44 200.378 96.2377 200.783 96.6425 200.985C97.0473 201.188 97.0978 200.833 97.3508 200.58C98.6155 199.315 99.3236 197.899 100.335 196.38C100.841 195.874 101.296 195.217 101.752 194.559C102.258 194.053 102.713 193.901 103.118 194.103C103.725 194.407 103.573 194.963 103.371 195.368C103.169 196.279 102.815 197.24 102.967 198.202C102.967 199.213 103.422 199.568 104.535 199.365C105.497 199.213 106.154 198.656 106.863 198.252C109.392 196.227 111.466 193.849 113.743 191.572C114.147 191.268 114.603 190.61 114.856 190.863C115.362 191.369 114.653 191.774 114.299 192.229C112.832 194.405 111.163 196.48 109.038 198.201C108.128 199.01 107.116 200.022 105.75 200.478ZM133.998 184.479C130.76 187.414 127.32 190.248 123.779 192.779C122.362 193.588 121.148 194.499 119.731 195.309C118.416 195.916 117.1 196.018 115.684 195.816C114.318 195.765 113.66 194.804 113.103 193.64C113.002 193.337 113.052 192.983 113.153 192.78C113.811 191.212 114.62 189.592 115.885 188.327C116.694 187.214 117.959 186.961 118.921 187.821C119.68 188.58 119.68 189.592 118.871 190.705C118.011 191.666 116.948 192.527 115.886 193.387C115.582 193.488 115.127 193.64 115.228 193.944C115.38 194.399 115.785 194.601 116.139 194.652C117.201 194.803 118.264 194.449 119.124 193.994C121.856 192.576 124.284 190.755 126.864 188.882C128.787 187.566 130.811 186.048 132.733 184.732C133.138 184.429 133.441 184.327 133.947 184.327L133.998 184.479ZM127.293 226.52C124.864 227.33 123.498 226.267 123.245 223.991C122.992 222.22 123.447 220.55 123.902 218.88C125.57 212.758 128.201 206.989 131.489 201.676C133.411 198.843 135.131 195.908 136.85 192.973C137.205 192.518 137.053 192.062 136.901 191.607C135.939 189.735 134.876 188.065 133.51 186.497C132.953 185.839 132.397 185.182 132.144 184.423C130.98 182.45 132.092 179.717 134.47 179.262C134.622 179.211 134.926 179.11 135.128 179.211C135.432 179.11 135.634 179.211 135.533 179.413C135.634 179.717 135.482 179.767 135.33 179.818C134.723 180.021 134.319 180.324 133.914 180.628C132.548 182.095 132.599 182.753 133.661 184.423C134.977 186.345 136.748 188.116 137.811 190.291C138.216 190.999 138.52 190.392 138.773 190.139C140.493 187.71 142.061 185.332 143.629 182.954C144.236 182.245 144.792 181.385 145.399 180.677C145.602 180.272 145.905 180.171 146.158 180.424C146.563 180.626 146.462 180.828 146.411 181.182C146.31 181.385 146.057 181.638 145.956 181.84C143.477 185.028 141.403 188.419 139.178 191.859C138.925 192.112 138.722 192.517 138.925 193.124C141.152 198.791 140.546 204.559 138.573 210.277C137.461 213.515 135.943 216.551 134.224 219.486C132.706 222.016 130.784 224.344 128.305 226.014C127.9 226.317 127.445 226.469 127.293 226.52ZM124.763 224.496C125.168 226.217 125.724 226.368 127.141 225.559C128.406 224.799 129.316 223.99 130.328 222.978C133.717 218.98 136.095 214.477 137.663 209.568C138.977 204.913 139.533 200.005 138.318 195.351C138.166 194.895 138.369 194.491 137.812 194.339C137.306 194.339 137.255 194.693 137.002 194.946C135.08 198.286 132.956 201.524 131.034 204.864C128.606 209.216 126.583 213.77 125.116 218.475C124.61 220.499 124.054 222.371 124.763 224.496ZM164.778 174.045C164.019 176.322 162.4 178.043 161.237 180.117C159.568 182.698 157.949 185.43 156.28 188.011C154.864 190.339 153.194 192.413 151.322 194.387C150.159 195.45 148.54 195.652 147.022 195.147C145.352 194.691 144.289 193.528 143.884 191.808C143.378 188.772 143.732 185.787 144.439 182.852C146.158 174.352 148.991 166.155 151.873 158.109C152.025 157.553 152.379 157.097 151.924 156.743C151.671 156.49 151.114 156.844 150.659 156.996C148.18 158.16 145.448 159.072 142.817 160.286C137.808 162.463 132.951 164.589 127.993 166.917C122.377 169.802 116.66 172.383 110.994 175.116C108.414 176.483 105.783 177.697 102.899 178.153C102.292 178.356 101.432 178.305 100.825 178.002C100.572 177.749 100.217 177.698 100.268 177.344C100.369 177.142 100.673 177.04 100.875 177.141C102.393 176.635 103.86 175.977 105.277 175.673C110.387 174.813 114.636 171.877 119.342 169.802C125.817 166.968 132.142 163.678 138.769 160.793C143.221 158.971 147.674 157.149 152.227 155.124C152.834 154.921 153.188 154.466 153.34 153.909C154.402 151.025 155.666 148.242 156.729 145.358C157.386 143.79 158.044 142.221 158.701 140.652C158.752 140.298 158.853 140.096 159.106 139.843C159.409 139.236 159.966 138.881 160.725 139.134C161.433 139.235 161.332 139.944 161.383 140.601C161.079 142.22 160.624 143.89 160.118 145.408C159.461 147.483 158.652 149.608 157.994 151.683C157.741 151.936 157.539 152.34 157.792 152.593C158.096 152.998 158.501 152.694 158.804 152.593C164.572 150.67 170.441 148.544 176.259 146.772C182.988 144.696 189.97 142.874 197.053 141.861C198.217 141.81 199.178 141.658 200.545 142.214C198.976 142.569 197.458 142.569 196.193 142.822C190.83 143.936 185.518 145.202 180.307 146.771C176.006 148.037 171.807 149.1 167.608 150.669C164.42 151.732 161.283 152.947 158.096 154.01C157.034 154.364 156.426 155.073 156.123 156.186C154.505 160.436 152.886 164.687 151.065 168.836C149.75 171.973 148.182 174.857 147.07 178.096C145.755 182.245 144.845 186.596 145.2 191.2C145.301 192.516 146.01 193.629 147.325 194.033C148.843 194.539 150.007 193.982 151.019 192.97C152.587 191.098 154.104 189.074 155.622 187.05C158.505 182.546 161.237 178.599 164.07 174.45C164.171 174.248 164.424 173.995 164.778 174.045ZM160.118 140.855C159.612 140.855 159.561 141.209 159.46 141.411C158.803 142.98 157.993 144.599 157.386 146.319C156.577 148.445 155.667 150.772 154.908 153.049C154.858 153.403 154.605 153.656 155.01 153.859C155.414 154.061 155.667 153.808 155.768 153.606C156.021 153.353 156.123 153.15 156.224 152.948C157.438 149.507 159.005 146.117 159.865 142.625C160.017 142.069 160.32 141.462 160.118 140.855ZM150.964 164.99C152.43 162.309 153.493 159.424 154.605 156.692C154.808 156.287 155.162 155.832 154.757 155.63C154.15 155.326 153.846 155.933 153.644 156.338C153.543 156.54 153.593 156.692 153.492 156.895C152.531 159.576 151.57 162.258 150.964 164.99ZM164.778 173.033C165.031 173.792 165.385 174.349 165.537 174.804C165.638 175.613 165.385 176.372 165.487 177.182C165.436 178.042 165.892 178.396 166.549 177.84C168.725 176.271 170.698 174.601 172.671 172.931C173.48 172.323 173.885 171.514 174.542 170.957C174.795 170.704 175.301 170.704 175.554 170.451C175.605 170.603 175.656 170.755 175.706 170.906C175.352 171.362 174.998 171.817 174.593 172.121C172.722 174.094 170.698 176.119 168.776 177.94C167.865 178.75 166.904 179.408 165.487 179.206C164.779 179.105 164.121 178.649 163.969 177.688C164.07 176.474 164.12 175.108 164.221 173.893C164.322 173.691 164.474 173.64 164.778 173.033ZM164.979 169.087C164.929 168.429 164.726 167.822 164.676 167.164C164.625 167.012 165.08 166.86 165.232 166.81C165.384 166.759 165.637 167.012 165.536 167.214C165.586 167.872 165.435 168.429 165.485 169.087C165.334 169.137 165.182 169.188 164.979 169.087ZM178.486 175.039C177.424 175.393 175.754 174.938 175.147 174.129C174.59 173.471 174.286 171.549 174.691 170.739C174.893 170.334 175.298 170.031 175.703 170.233C176.26 170.385 176.057 170.789 176.007 171.144C175.804 172.054 175.552 173.319 176.715 173.774C177.879 174.23 178.587 173.319 179.346 172.56C179.852 172.054 180.156 171.446 180.51 170.991C180.864 170.536 180.763 170.232 180.105 170.283C179.194 170.586 178.132 170.435 177.676 169.575C177.221 168.715 177.929 167.804 178.485 166.944C179.902 165.122 181.774 165.172 183.191 166.892C183.494 167.297 183.798 167.702 184.253 167.55C186.176 167.246 188.098 166.436 190.072 165.778C190.679 165.576 191.387 165.171 192.146 164.918C192.298 164.867 192.702 164.563 192.854 165.019C192.956 165.322 192.652 165.424 192.399 165.677C189.616 166.942 187.087 168.46 184.304 168.714C183.495 168.815 183.039 169.473 182.786 170.232C182.129 171.8 181.168 172.964 180.004 174.027C179.498 174.533 179.094 174.837 178.486 175.039ZM194.61 165.614C195.369 164.855 195.926 163.994 196.836 163.185C197.089 162.932 197.494 162.628 197.949 162.476C199.315 162.021 199.72 162.223 200.125 163.437C200.581 164.803 200.732 164.753 201.896 164.196C203.464 163.336 204.729 162.07 205.842 160.856C206.196 160.4 206.651 159.743 207.258 160.046C207.714 160.4 207.259 161.058 206.905 161.513C205.589 163.133 204.122 164.803 202.2 165.613C200.631 166.473 199.417 165.866 198.607 164.449C198.253 163.893 198 164.146 197.595 164.45C196.533 165.31 195.926 166.524 195.117 167.638C194.712 168.447 194.105 169.156 193.7 169.965C193.346 170.421 192.739 170.623 192.132 170.32C191.525 170.016 191.524 169.51 191.676 168.954C192.081 167.638 192.536 166.474 192.232 165.058C192.181 164.4 193.041 163.944 193.699 163.894C194.357 163.843 194.408 164.501 194.408 165.007C194.458 165.158 194.357 165.361 194.61 165.614ZM200.664 202.05C198.235 202.86 196.869 201.798 196.616 199.521C196.362 197.75 196.818 196.08 197.273 194.411C198.941 188.288 201.571 182.52 204.859 177.207C206.782 174.373 208.501 171.438 210.221 168.503C210.575 168.048 210.424 167.592 210.272 167.137C209.31 165.265 208.247 163.596 206.881 162.027C206.324 161.37 205.768 160.712 205.514 159.953C204.35 157.98 205.463 155.248 207.841 154.792C207.993 154.741 208.296 154.64 208.499 154.741C208.802 154.64 209.005 154.741 208.904 154.944C209.005 155.247 208.853 155.298 208.701 155.348C208.094 155.551 207.689 155.854 207.285 156.158C205.919 157.626 205.97 158.283 207.032 159.953C208.348 161.875 210.119 163.646 211.182 165.821C211.587 166.53 211.891 165.923 212.144 165.669C213.863 163.241 215.432 160.862 217 158.484C217.607 157.776 218.163 156.915 218.77 156.207C218.972 155.802 219.276 155.701 219.529 155.954C219.934 156.156 219.833 156.359 219.782 156.713C219.681 156.915 219.428 157.168 219.327 157.371C216.848 160.559 214.774 163.949 212.549 167.39C212.296 167.643 212.093 168.048 212.296 168.655C214.523 174.321 213.917 180.089 211.944 185.807C210.832 189.045 209.314 192.081 207.594 195.016C206.077 197.546 204.155 199.874 201.676 201.544C201.271 201.848 200.816 202 200.664 202.05ZM198.134 200.027C198.539 201.747 199.095 201.899 200.512 201.089C201.777 200.33 202.687 199.52 203.699 198.508C207.088 194.51 209.466 190.007 211.033 185.099C212.348 180.444 212.904 175.536 211.689 170.881C211.537 170.426 211.739 170.021 211.183 169.869C210.677 169.869 210.626 170.223 210.373 170.476C208.451 173.816 206.327 177.055 204.405 180.394C201.977 184.746 199.953 189.3 198.487 194.006C197.981 196.03 197.425 197.902 198.134 200.027ZM195.539 102.224C195.286 102.983 194.983 103.084 194.224 102.831C193.212 102.325 192.554 101.364 192.756 99.9473C192.907 97.3669 194.02 95.1405 195.184 93.0658C198.977 86.2347 203.732 80.2636 209.702 75.4054C214.609 71.4075 219.769 67.6626 225.486 65.0813C229.584 63.2086 233.733 61.9936 238.236 62.853C243.195 63.5606 246.535 66.4947 248.66 70.8456C250.28 74.6907 250.736 78.5866 250.585 82.6849C250.535 87.5928 249.575 92.2984 248.31 97.1052C246.894 101.963 245.175 106.921 243.051 111.678C239.965 119.116 236.172 126.453 232.328 133.638C229.546 138.951 226.764 144.265 224.134 149.527C223.678 150.185 223.577 150.893 223.324 151.652C223.071 151.905 222.565 152.411 222.211 152.361C221.351 152.31 221.806 151.652 221.958 151.096C223.88 147.25 225.954 143.354 227.927 139.66C230.203 135.359 232.53 131.21 234.806 126.909C238.802 119.167 242.545 111.172 245.529 102.924C247.804 96.0934 249.726 89.212 249.624 81.8249C249.623 77.2712 249.015 72.92 246.383 69.0751C243.549 64.6231 239.35 63.1564 234.239 63.5114C230.951 63.7649 227.966 64.9291 225.082 66.3968C217.796 69.8385 211.321 74.6968 205.655 80.4657C201.254 84.9695 197.612 90.2321 195.032 96.1523C194.526 97.1643 194.274 98.4292 194.021 99.6942C193.819 101.111 194.274 101.971 195.539 102.224ZM224.337 158.735C224.843 159.241 225.248 159.444 225.299 159.595C225.248 159.95 224.995 160.203 224.742 160.456C224.641 160.658 223.983 160.203 223.933 160.051C223.983 159.697 224.236 159.444 224.337 158.735Z" fill="#922D2D"/>
</svg>
