<svg width="40" height="40" viewBox="0 0 40 40" fill="none" xmlns="http://www.w3.org/2000/svg">
<g id="Group 3">
<path id="Vector" d="M39.98 9.09445C39.9633 8.23636 39.8945 7.38007 39.774 6.53033C39.6303 5.77449 39.3862 5.04128 39.048 4.35022C38.3077 2.88875 37.121 1.70123 35.66 0.960048C34.9734 0.623456 34.245 0.379963 33.494 0.236012C32.6378 0.112971 31.7748 0.0428342 30.91 0.0260013C30.544 0.0120006 30.07 0.00600034 29.85 0.00600034L10.154 0C9.934 0 9.46 0.00600028 9.094 0.020001C8.23594 0.036535 7.37969 0.105332 6.53 0.226011C5.7742 0.369698 5.04103 0.613877 4.35 0.952048C2.88869 1.69249 1.70126 2.87927 0.96 4.34022C0.623513 5.02688 0.380037 5.75533 0.236 6.50632C0.112407 7.36254 0.0416062 8.22555 0.0240002 9.09046C0.0120002 9.45647 0.00400019 9.9305 0.00400019 10.1505L0 29.8475C0 30.0675 0.00599998 30.5415 0.02 30.9075C0.0365332 31.7656 0.105327 32.6219 0.226 33.4717C0.369703 34.2275 0.613869 34.9607 0.952 35.6518C1.6924 37.1132 2.87912 38.3007 4.34 39.042C5.02665 39.3784 5.75505 39.6219 6.506 39.766C7.3622 39.889 8.22517 39.9592 9.09 39.976C9.456 39.99 9.93 39.996 10.15 39.996L29.846 40C30.066 40 30.54 39.994 30.906 39.98C31.7641 39.9634 32.6203 39.8946 33.47 39.774C34.2258 39.6302 34.9589 39.386 35.65 39.048C37.1121 38.3079 38.3002 37.121 39.042 35.6598C39.3785 34.9731 39.622 34.2447 39.766 33.4937C39.8897 32.6375 39.9605 31.7745 39.978 30.9095C39.99 30.5435 39.998 30.0695 39.998 29.8495L40 10.1545C40 9.9345 39.994 9.46047 39.98 9.09445ZM20.434 33.9157H20.428C18.0473 33.9152 15.7047 33.3184 13.614 32.1796L6.054 34.1617L8.078 26.7753C6.51091 24.0558 5.88474 20.8953 6.2966 17.7837C6.70845 14.6721 8.13531 11.7832 10.3559 9.56514C12.5766 7.34703 15.4669 5.92354 18.5789 5.51537C21.6908 5.10719 24.8505 5.73715 27.568 7.30755C30.2855 8.87796 32.409 11.3011 33.6093 14.2012C34.8096 17.1014 35.0196 20.3165 34.2068 23.3482C33.394 26.3799 31.6037 29.0587 29.1136 30.9693C26.6235 32.8799 23.5726 33.9155 20.434 33.9157Z" fill="#43FFD2"/>
<path id="Vector_2" d="M20.4405 7.80132C18.3226 7.8007 16.2433 8.3675 14.4187 9.44277C12.5942 10.518 11.0909 12.0625 10.0654 13.9156C9.03993 15.7687 8.52957 17.8627 8.58743 19.9798C8.6453 22.097 9.26928 24.1599 10.3945 25.9542L10.6765 26.4023L9.47847 30.7745L13.9645 29.5984L14.3965 29.8544C16.2227 30.936 18.3061 31.5066 20.4285 31.5065H20.4345C23.5781 31.507 26.5931 30.2587 28.8164 28.0361C31.0396 25.8135 32.2889 22.7987 32.2895 19.6549C32.29 16.5111 31.0417 13.4959 28.8192 11.2726C26.5967 9.04921 23.5821 7.79985 20.4385 7.79932L20.4405 7.80132ZM27.4085 24.7422C27.1463 25.1751 26.7974 25.5492 26.3837 25.8407C25.9699 26.1322 25.5004 26.335 25.0045 26.4363C24.2558 26.5647 23.4874 26.5167 22.7605 26.2962C22.0711 26.0814 21.3935 25.8304 20.7305 25.5442C18.2699 24.3093 16.1727 22.456 14.6445 20.1659C13.8108 19.1058 13.3048 17.8254 13.1885 16.4818C13.1789 15.9272 13.2849 15.3766 13.4997 14.8653C13.7146 14.3539 14.0336 13.8929 14.4365 13.5116C14.5555 13.3758 14.7014 13.2661 14.8649 13.1893C15.0283 13.1125 15.2059 13.0704 15.3865 13.0656C15.6225 13.0656 15.8605 13.0656 16.0685 13.0776C16.2885 13.0876 16.5805 12.9936 16.8685 13.6896C17.1685 14.4016 17.8805 16.1557 17.9685 16.3337C18.025 16.4271 18.0573 16.533 18.0625 16.642C18.0678 16.7509 18.0457 16.8595 17.9985 16.9578C17.9087 17.1718 17.7889 17.3718 17.6425 17.5518C17.4625 17.7598 17.2685 18.0158 17.1085 18.1758C16.9285 18.3538 16.7445 18.5459 16.9505 18.9019C17.4855 19.818 18.1534 20.6498 18.9325 21.37C19.7777 22.1215 20.7476 22.7199 21.7985 23.1381C22.1545 23.3181 22.3625 23.2861 22.5705 23.0481C22.7785 22.8101 23.4605 22.008 23.6985 21.652C23.9365 21.296 24.1725 21.356 24.4985 21.474C24.8245 21.592 26.5785 22.4541 26.9345 22.6341C27.2905 22.8141 27.5285 22.9001 27.6165 23.0481C27.714 23.621 27.6417 24.2099 27.4085 24.7422Z" fill="#43FFD2"/>
</g>
</svg>
