<svg width="18" height="18" viewBox="0 0 18 18" fill="none" xmlns="http://www.w3.org/2000/svg">
<g id="ph:magnifying-glass-thin">
<path id="Vector" d="M15.9484 15.5509L12.7234 12.326C13.8149 11.1308 14.3952 9.55591 14.3402 7.93829C14.2852 6.32068 13.5993 4.78882 12.4292 3.67051C11.2592 2.5522 9.69786 1.93626 8.07941 1.9545C6.46096 1.97273 4.91392 2.62368 3.76933 3.76807C2.62474 4.91246 1.97352 6.45938 1.955 8.07783C1.93648 9.69627 2.55214 11.2577 3.67024 12.428C4.78835 13.5982 6.32008 14.2844 7.93769 14.3397C9.5553 14.395 11.1303 13.8149 12.3257 12.7237L15.5507 15.9488C15.6034 16.0015 15.675 16.0311 15.7496 16.0311C15.8242 16.0311 15.8957 16.0014 15.9484 15.9487C16.0012 15.8959 16.0308 15.8244 16.0308 15.7498C16.0308 15.6752 16.0011 15.6037 15.9484 15.5509ZM2.53126 8.15602C2.53126 7.0435 2.86116 5.95597 3.47925 5.03094C4.09733 4.10591 4.97583 3.38494 6.00367 2.9592C7.0315 2.53346 8.1625 2.42206 9.25365 2.6391C10.3448 2.85615 11.3471 3.39188 12.1337 4.17855C12.9204 4.96522 13.4561 5.9675 13.6732 7.05864C13.8902 8.14978 13.7788 9.28078 13.3531 10.3086C12.9273 11.3365 12.2064 12.215 11.2813 12.833C10.3563 13.4511 9.26878 13.781 8.15626 13.781C6.66493 13.7793 5.23517 13.1862 4.18064 12.1316C3.12611 11.0771 2.53294 9.64735 2.53126 8.15602Z" fill="white"/>
</g>
</svg>
