<svg width="18" height="18" viewBox="0 0 18 18" fill="none" xmlns="http://www.w3.org/2000/svg">
<g id="mdi-light:phone">
<path id="Vector" d="M14.625 16.5C15.2452 16.5 15.75 15.9952 15.75 15.375V12.75C15.75 12.1298 15.2452 11.625 14.625 11.625C13.7475 11.625 12.885 11.487 12.06 11.2148C11.8628 11.1525 11.6524 11.1449 11.4512 11.1929C11.25 11.2408 11.0657 11.3425 10.9178 11.487L9.83775 12.567C7.97108 11.5536 6.43802 10.0211 5.424 8.15475L6.495 7.077C6.804 6.7905 6.915 6.35475 6.783 5.9355C6.5113 5.10922 6.37356 4.2448 6.375 3.375C6.375 2.75475 5.87025 2.25 5.25 2.25H2.625C2.00475 2.25 1.5 2.75475 1.5 3.375C1.5 10.6125 7.3875 16.5 14.625 16.5ZM2.625 3H5.25C5.34946 3 5.44484 3.03951 5.51516 3.10984C5.58549 3.18016 5.625 3.27554 5.625 3.375C5.625 4.33275 5.775 5.27325 6.06975 6.165C6.09141 6.22971 6.09394 6.29929 6.07704 6.36541C6.06015 6.43152 6.02455 6.49136 5.9745 6.53775L4.5075 8.01225C5.73525 10.4332 7.54875 12.2467 9.981 13.485L11.4427 12.0225C11.4926 11.9731 11.555 11.9383 11.6232 11.9216C11.6913 11.905 11.7627 11.9072 11.8298 11.928C12.7267 12.225 13.6672 12.375 14.625 12.375C14.8313 12.375 15 12.5437 15 12.75V15.375C15 15.5813 14.8313 15.75 14.625 15.75C7.8015 15.75 2.25 10.1985 2.25 3.375C2.25 3.27554 2.28951 3.18016 2.35984 3.10984C2.43016 3.03951 2.52554 3 2.625 3Z" fill="#43FFD2"/>
</g>
</svg>
