<svg width="30" height="30" viewBox="0 0 30 30" fill="none" xmlns="http://www.w3.org/2000/svg">
<g id="ph:handbag-thin">
<path id="Vector" d="M27.5375 24.2201L25.871 9.22006C25.8331 8.87597 25.6695 8.558 25.4115 8.32713C25.1536 8.09626 24.8195 7.96876 24.4733 7.96908H20.1339C20.017 6.68823 19.4255 5.49732 18.4757 4.63016C17.5258 3.763 16.286 3.28223 14.9999 3.28223C13.7137 3.28223 12.474 3.763 11.5241 4.63016C10.5742 5.49732 9.98276 6.68823 9.86588 7.96908H5.52643C5.18026 7.96876 4.84616 8.09626 4.58822 8.32713C4.33027 8.558 4.16665 8.87597 4.12874 9.22006L2.46221 24.2201C2.44038 24.4166 2.46024 24.6156 2.52052 24.8039C2.58079 24.9923 2.68012 25.1658 2.81201 25.3132C2.9439 25.4605 3.10539 25.5784 3.28594 25.6591C3.46648 25.7398 3.66202 25.7816 3.85979 25.7816H26.1398C26.3376 25.7816 26.5332 25.7399 26.7137 25.6592C26.8943 25.5785 27.0558 25.4606 27.1877 25.3132C27.3196 25.1658 27.4189 24.9923 27.4792 24.804C27.5395 24.6156 27.5594 24.4166 27.5375 24.2201ZM14.9999 4.21908C16.0371 4.22046 17.0376 4.60342 17.8107 5.29499C18.5838 5.98655 19.0754 6.93838 19.1919 7.96908H10.8078C10.9243 6.93838 11.4159 5.98655 12.189 5.29499C12.9621 4.60342 13.9626 4.22046 14.9999 4.21908ZM26.4892 24.688C26.4454 24.7374 26.3917 24.7769 26.3314 24.8038C26.2712 24.8307 26.2059 24.8445 26.1399 24.8441H3.85979C3.79387 24.8441 3.72869 24.8302 3.66851 24.8033C3.60833 24.7763 3.5545 24.737 3.51054 24.6879C3.46658 24.6388 3.43348 24.5809 3.41339 24.5182C3.3933 24.4554 3.38669 24.3891 3.39397 24.3235L5.06061 9.32354C5.07326 9.20886 5.12779 9.10289 5.21375 9.02594C5.29972 8.949 5.41106 8.90649 5.52643 8.90658H9.84362V12.1878C9.84362 12.3122 9.893 12.4314 9.98091 12.5193C10.0688 12.6072 10.188 12.6566 10.3124 12.6566C10.4367 12.6566 10.5559 12.6072 10.6438 12.5193C10.7317 12.4314 10.7811 12.3122 10.7811 12.1878V8.90658H19.2186V12.1878C19.2186 12.3122 19.268 12.4314 19.3559 12.5193C19.4438 12.6072 19.563 12.6566 19.6874 12.6566C19.8117 12.6566 19.9309 12.6072 20.0188 12.5193C20.1067 12.4314 20.1561 12.3122 20.1561 12.1878V8.90658H24.4733C24.5887 8.90649 24.7 8.949 24.786 9.02594C24.8719 9.10289 24.9265 9.20886 24.9391 9.32354L26.6058 24.3235C26.6134 24.3891 26.607 24.4555 26.5869 24.5184C26.5667 24.5812 26.5334 24.639 26.4892 24.688Z" fill="white"/>
</g>
</svg>
