<svg width="60" height="60" viewBox="0 0 60 60" fill="none" xmlns="http://www.w3.org/2000/svg">
<g filter="url(#filter0_b_17956_379)">
<rect width="60" height="60" rx="10" fill="black" fill-opacity="0.2"/>
</g>
<path d="M42.5375 39.2201L40.871 24.2201C40.8331 23.876 40.6695 23.558 40.4115 23.3271C40.1536 23.0963 39.8195 22.9688 39.4733 22.9691H35.1339C35.017 21.6882 34.4255 20.4973 33.4757 19.6302C32.5258 18.763 31.286 18.2822 29.9999 18.2822C28.7137 18.2822 27.474 18.763 26.5241 19.6302C25.5742 20.4973 24.9828 21.6882 24.8659 22.9691H20.5264C20.1803 22.9688 19.8462 23.0963 19.5882 23.3271C19.3303 23.558 19.1667 23.876 19.1287 24.2201L17.4622 39.2201C17.4404 39.4166 17.4602 39.6156 17.5205 39.8039C17.5808 39.9923 17.6801 40.1658 17.812 40.3132C17.9439 40.4605 18.1054 40.5784 18.2859 40.6591C18.4665 40.7398 18.662 40.7816 18.8598 40.7816H41.1398C41.3376 40.7816 41.5332 40.7399 41.7137 40.6592C41.8943 40.5785 42.0558 40.4606 42.1877 40.3132C42.3196 40.1658 42.4189 39.9923 42.4792 39.804C42.5395 39.6156 42.5594 39.4166 42.5375 39.2201ZM29.9999 19.2191C31.0371 19.2205 32.0376 19.6034 32.8107 20.295C33.5838 20.9866 34.0754 21.9384 34.1919 22.9691H25.8078C25.9243 21.9384 26.4159 20.9866 27.189 20.295C27.9621 19.6034 28.9626 19.2205 29.9999 19.2191ZM41.4892 39.688C41.4454 39.7374 41.3917 39.7769 41.3314 39.8038C41.2712 39.8307 41.2059 39.8445 41.1399 39.8441H18.8598C18.7939 39.8441 18.7287 39.8302 18.6685 39.8033C18.6083 39.7763 18.5545 39.737 18.5105 39.6879C18.4666 39.6388 18.4335 39.5809 18.4134 39.5182C18.3933 39.4554 18.3867 39.3891 18.394 39.3235L20.0606 24.3235C20.0733 24.2089 20.1278 24.1029 20.2138 24.0259C20.2997 23.949 20.4111 23.9065 20.5264 23.9066H24.8436V27.1878C24.8436 27.3122 24.893 27.4314 24.9809 27.5193C25.0688 27.6072 25.188 27.6566 25.3124 27.6566C25.4367 27.6566 25.5559 27.6072 25.6438 27.5193C25.7317 27.4314 25.7811 27.3122 25.7811 27.1878V23.9066H34.2186V27.1878C34.2186 27.3122 34.268 27.4314 34.3559 27.5193C34.4438 27.6072 34.563 27.6566 34.6874 27.6566C34.8117 27.6566 34.9309 27.6072 35.0188 27.5193C35.1067 27.4314 35.1561 27.3122 35.1561 27.1878V23.9066H39.4733C39.5887 23.9065 39.7 23.949 39.786 24.0259C39.8719 24.1029 39.9265 24.2089 39.9391 24.3235L41.6058 39.3235C41.6134 39.3891 41.607 39.4555 41.5869 39.5184C41.5667 39.5812 41.5334 39.639 41.4892 39.688Z" fill="white"/>
<circle cx="44" cy="20.8652" r="8" fill="#43FFD2"/>
<path d="M43.916 26.096C43.076 26.096 42.472 25.86 42.104 25.388C41.744 24.908 41.564 24.204 41.564 23.276H42.848C42.848 23.82 42.92 24.256 43.064 24.584C43.216 24.912 43.508 25.076 43.94 25.076C44.268 25.076 44.512 24.98 44.672 24.788C44.832 24.596 44.932 24.344 44.972 24.032C45.02 23.712 45.044 23.288 45.044 22.76C45.044 22.272 45.016 21.884 44.96 21.596C44.912 21.3 44.808 21.076 44.648 20.924C44.496 20.764 44.264 20.684 43.952 20.684C43.704 20.684 43.484 20.76 43.292 20.912C43.108 21.064 42.968 21.256 42.872 21.488H41.78V16.28H45.968V17.564H42.944L42.86 20.252C43.204 19.892 43.672 19.712 44.264 19.712C45.008 19.712 45.536 19.968 45.848 20.48C46.168 20.984 46.328 21.688 46.328 22.592C46.328 23.696 46.148 24.556 45.788 25.172C45.428 25.788 44.804 26.096 43.916 26.096Z" fill="#142B2B"/>
<defs>
<filter id="filter0_b_17956_379" x="-20" y="-20" width="100" height="100" filterUnits="userSpaceOnUse" color-interpolation-filters="sRGB">
<feFlood flood-opacity="0" result="BackgroundImageFix"/>
<feGaussianBlur in="BackgroundImageFix" stdDeviation="10"/>
<feComposite in2="SourceAlpha" operator="in" result="effect1_backgroundBlur_17956_379"/>
<feBlend mode="normal" in="SourceGraphic" in2="effect1_backgroundBlur_17956_379" result="shape"/>
</filter>
</defs>
</svg>
