<svg width="34" height="68" viewBox="0 0 34 68" fill="none" xmlns="http://www.w3.org/2000/svg">
<path d="M10.68 43.9C10.68 45.06 10.8 45.92 11.04 46.48C11.32 47 11.8 47.36 12.48 47.56C13.2 47.76 14.32 47.86 15.84 47.86H23.52C27.48 47.86 29.82 45.32 30.54 40.24C30.54 40.12 30.64 40.08 30.84 40.12C31.08 40.12 31.2 40.18 31.2 40.3C30.84 43.46 30.66 46.06 30.66 48.1C30.66 48.42 30.6 48.66 30.48 48.82C30.36 48.94 30.12 49 29.76 49H2.16C2.08 49 2.04 48.88 2.04 48.64C2.04 48.4 2.08 48.28 2.16 48.28C3.72 48.28 4.86 48.18 5.58 47.98C6.34 47.78 6.84 47.4 7.08 46.84C7.36 46.24 7.5 45.34 7.5 44.14V16.36C7.5 15.16 7.36 14.28 7.08 13.72C6.84 13.16 6.34 12.78 5.58 12.58C4.86 12.34 3.72 12.22 2.16 12.22C2.08 12.22 2.04 12.1 2.04 11.86C2.04 11.62 2.08 11.5 2.16 11.5L5.1 11.56C6.78 11.64 8.1 11.68 9.06 11.68C10.14 11.68 11.52 11.64 13.2 11.56L16.02 11.5C16.1 11.5 16.14 11.62 16.14 11.86C16.14 12.1 16.1 12.22 16.02 12.22C14.46 12.22 13.3 12.34 12.54 12.58C11.82 12.78 11.32 13.18 11.04 13.78C10.8 14.34 10.68 15.22 10.68 16.42V43.9Z" fill="#8A8686"/>
<path d="M30.55 28.25C30.55 28.35 30.45 28.4 30.25 28.4C30.0833 28.4 30 28.35 30 28.25C30 26.55 29.55 25.2 28.65 24.2C27.75 23.2 26.5667 22.7 25.1 22.7H21.65C20.4167 22.7 19.5 22.7833 18.9 22.95C18.3 23.1167 17.8833 23.4167 17.65 23.85C17.4167 24.2833 17.3 24.95 17.3 25.85V36.85H22.75C24.45 36.85 25.65 36.6 26.35 36.1C27.05 35.5667 27.4 34.6667 27.4 33.4C27.4 33.3333 27.5 33.3 27.7 33.3C27.9 33.3 28 33.3333 28 33.4L27.95 37.35C27.95 38.3167 27.9667 39.0333 28 39.5L28.05 41.85C28.05 41.9167 27.95 41.95 27.75 41.95C27.55 41.95 27.45 41.9167 27.45 41.85C27.45 40.35 27.0833 39.3 26.35 38.7C25.65 38.1 24.3833 37.8 22.55 37.8H17.3V48.75C17.3 49.8167 17.45 50.6 17.75 51.1C18.05 51.5667 18.6167 51.9 19.45 52.1C20.3167 52.3 21.6833 52.4 23.55 52.4C23.65 52.4 23.7 52.5 23.7 52.7C23.7 52.9 23.65 53 23.55 53C22.1833 53 21.1167 52.9833 20.35 52.95L16 52.9L12.7 52.95C12.1 52.9833 11.2667 53 10.2 53C10.1333 53 10.1 52.9 10.1 52.7C10.1 52.5 10.1333 52.4 10.2 52.4C11.5 52.4 12.45 52.3167 13.05 52.15C13.6833 51.9833 14.1 51.6667 14.3 51.2C14.5333 50.7 14.65 49.95 14.65 48.95V25.8C14.65 24.8 14.5333 24.0667 14.3 23.6C14.1 23.1333 13.6833 22.8167 13.05 22.65C12.45 22.45 11.5 22.35 10.2 22.35C10.1333 22.35 10.1 22.25 10.1 22.05C10.1 21.85 10.1333 21.75 10.2 21.75H30C30.3 21.75 30.45 21.9 30.45 22.2L30.55 28.25Z" fill="white"/>
</svg>
