<svg width="60" height="154" viewBox="0 0 60 154" fill="none" xmlns="http://www.w3.org/2000/svg">
<g id="Group 6">
<g id="Rectangle 25" filter="url(#filter0_b_1_37)">
<rect width="60" height="154" rx="10" fill="black" fill-opacity="0.2"/>
</g>
<g id="Group 5">
<g id="Group 3">
<path id="Vector" d="M42.5716 70.9113C42.5615 70.3929 42.52 69.8756 42.4471 69.3622C42.3603 68.9056 42.2128 68.4626 42.0085 68.0451C41.5612 67.1622 40.8442 66.4448 39.9616 65.997C39.5468 65.7936 39.1067 65.6465 38.653 65.5596C38.1357 65.4852 37.6143 65.4429 37.0918 65.4327C36.8707 65.4242 36.5843 65.4206 36.4514 65.4206L24.5517 65.417C24.4188 65.417 24.1324 65.4206 23.9113 65.4291C23.3929 65.4391 22.8756 65.4806 22.3622 65.5535C21.9056 65.6403 21.4626 65.7879 21.0451 65.9922C20.1622 66.4395 19.4448 67.1565 18.997 68.0391C18.7937 68.4539 18.6466 68.894 18.5596 69.3477C18.4849 69.865 18.4421 70.3863 18.4315 70.9089C18.4242 71.13 18.4194 71.4164 18.4194 71.5493L18.417 83.4489C18.417 83.5819 18.4206 83.8682 18.4291 84.0894C18.4391 84.6078 18.4806 85.1251 18.5535 85.6385C18.6404 86.0951 18.7879 86.538 18.9922 86.9555C19.4395 87.8384 20.1565 88.5558 21.0391 89.0037C21.4539 89.2069 21.894 89.354 22.3477 89.4411C22.865 89.5154 23.3864 89.5578 23.9089 89.5679C24.13 89.5764 24.4164 89.58 24.5493 89.58L36.449 89.5824C36.5819 89.5824 36.8682 89.5788 37.0894 89.5704C37.6078 89.5603 38.1251 89.5188 38.6385 89.4459C39.0951 89.359 39.538 89.2115 39.9555 89.0073C40.8389 88.5602 41.5567 87.8432 42.0049 86.9604C42.2082 86.5455 42.3553 86.1055 42.4423 85.6517C42.517 85.1345 42.5598 84.6131 42.5704 84.0906C42.5776 83.8694 42.5825 83.5831 42.5825 83.4502L42.5837 71.5517C42.5837 71.4188 42.58 71.1324 42.5716 70.9113ZM30.7625 85.9067H30.7589C29.3206 85.9064 27.9052 85.5458 26.6421 84.8579L22.0746 86.0553L23.2975 81.5929C22.3507 79.95 21.9724 78.0406 22.2212 76.1607C22.47 74.2809 23.3321 72.5357 24.6737 71.1956C26.0153 69.8556 27.7616 68.9956 29.6417 68.749C31.5219 68.5024 33.4308 68.883 35.0727 69.8318C36.7145 70.7805 37.9974 72.2444 38.7226 73.9965C39.4478 75.7486 39.5747 77.691 39.0836 79.5225C38.5925 81.354 37.5109 82.9724 36.0064 84.1267C34.502 85.2809 32.6588 85.9066 30.7625 85.9067Z" fill="#43FFD2"/>
<path id="Vector_2" d="M30.7664 70.1301C29.4869 70.1297 28.2306 70.4722 27.1283 71.1218C26.0259 71.7714 25.1178 72.7045 24.4982 73.824C23.8786 74.9435 23.5703 76.2085 23.6052 77.4876C23.6402 78.7666 24.0172 80.013 24.697 81.0969L24.8673 81.3676L24.1435 84.009L26.8538 83.2985L27.1148 83.4532C28.2182 84.1066 29.4769 84.4514 30.7592 84.4513H30.7628C32.6621 84.4516 34.4837 83.6974 35.8269 82.3547C37.1701 81.0119 37.9249 79.1906 37.9252 77.2913C37.9255 75.392 37.1713 73.5704 35.8286 72.2272C34.4858 70.884 32.6645 70.1292 30.7652 70.1289L30.7664 70.1301ZM34.9763 80.3647C34.8179 80.6263 34.6071 80.8522 34.3571 81.0284C34.1072 81.2045 33.8234 81.327 33.5238 81.3882C33.0715 81.4657 32.6073 81.4368 32.1681 81.3036C31.7516 81.1738 31.3422 81.0221 30.9416 80.8492C29.4551 80.1032 28.188 78.9835 27.2647 77.6C26.761 76.9596 26.4553 76.186 26.385 75.3743C26.3792 75.0392 26.4433 74.7066 26.5731 74.3977C26.7029 74.0888 26.8956 73.8103 27.139 73.5799C27.2109 73.4979 27.2991 73.4316 27.3978 73.3852C27.4966 73.3388 27.6039 73.3134 27.713 73.3104C27.8555 73.3104 27.9993 73.3104 28.125 73.3177C28.2579 73.3237 28.4343 73.2669 28.6083 73.6874C28.7896 74.1176 29.2198 75.1773 29.2729 75.2849C29.3071 75.3412 29.3266 75.4052 29.3297 75.4711C29.3329 75.5369 29.3196 75.6025 29.291 75.6619C29.2368 75.7911 29.1644 75.912 29.076 76.0207C28.9672 76.1464 28.85 76.3011 28.7533 76.3977C28.6446 76.5053 28.5334 76.6213 28.6579 76.8364C28.9811 77.3898 29.3847 77.8923 29.8553 78.3274C30.366 78.7815 30.952 79.1429 31.5869 79.3956C31.802 79.5044 31.9276 79.485 32.0533 79.3412C32.179 79.1974 32.591 78.7129 32.7348 78.4978C32.8786 78.2827 33.0212 78.319 33.2181 78.3903C33.4151 78.4616 34.4748 78.9824 34.6899 79.0911C34.905 79.1999 35.0488 79.2518 35.1019 79.3412C35.1609 79.6873 35.1172 80.0431 34.9763 80.3647Z" fill="#43FFD2"/>
</g>
<g id="Group 2">
<path id="Vector_3" d="M30.4884 28.3259C28.1947 28.3259 26.3228 30.1978 26.3228 32.4916C26.3228 34.7853 28.1947 36.6572 30.4884 36.6572C32.7822 36.6572 34.6541 34.7853 34.6541 32.4916C34.6541 30.1978 32.7822 28.3259 30.4884 28.3259ZM42.9822 32.4916C42.9822 30.7666 42.9978 29.0572 42.9009 27.3353C42.8041 25.3353 42.951 22.9537 41.4885 21.4912C40.0229 20.0256 37.6478 20.1791 35.6478 20.0822C33.9228 19.9853 32.2134 20.0009 30.4916 20.0009C28.7666 20.0009 27.0572 19.9853 25.3353 20.0822C23.3353 20.1791 20.951 20.0287 19.4885 21.4912C18.0229 22.9568 18.1791 25.3353 18.0822 27.3353C17.9853 29.0603 18.0009 30.7697 18.0009 32.4916C18.0009 34.2134 17.9853 35.9259 18.0822 37.6478C18.1791 39.6478 18.026 42.0287 19.4885 43.4912C20.9542 44.9568 23.3353 44.8041 25.3353 44.9009C27.0603 44.9978 28.7697 44.9822 30.4916 44.9822C32.2166 44.9822 33.9259 44.9978 35.6478 44.9009C37.6478 44.8041 40.026 44.9537 41.4885 43.4912C42.9542 42.0256 42.8041 39.6478 42.9009 37.6478C43.0009 35.9259 42.9822 34.2166 42.9822 32.4916ZM30.4884 38.9009C26.9416 38.9009 24.0791 36.0384 24.0791 32.4916C24.0791 28.9447 26.9416 26.0822 30.4884 26.0822C34.0353 26.0822 36.8978 28.9447 36.8978 32.4916C36.8978 36.0384 34.0353 38.9009 30.4884 38.9009ZM37.1603 27.3166C36.3322 27.3166 35.6634 26.6478 35.6634 25.8197C35.6634 24.9916 36.3322 24.3228 37.1603 24.3228C37.9884 24.3228 38.6572 24.9916 38.6572 25.8197C38.6574 26.0163 38.6189 26.2111 38.5437 26.3928C38.4686 26.5745 38.3584 26.7396 38.2193 26.8787C38.0803 27.0177 37.9151 27.128 37.7334 27.2031C37.5517 27.2783 37.3569 27.3168 37.1603 27.3166Z" fill="#43FFD2"/>
</g>
<g id="Group 4">
<path id="Vector_4" d="M37.9902 134H21.9902C19.9902 134 19.4637 133.707 18.8783 133.121C18.2929 132.535 17.9902 132 18.0002 130V114C18.0002 112 18.2929 111.465 18.8783 110.879C19.4637 110.293 19.9902 110 21.9902 110H37.9902C38.8175 110 40.0036 110.012 40.9902 111C41.9768 111.988 41.9768 113.172 41.9768 114V130C41.9902 132 41.6841 132.535 41.0988 133.121C40.5134 133.707 39.9902 134 37.9902 134ZM25.4929 119V116.75C25.4929 116.328 25.3641 115.914 25.1066 115.508C24.849 115.102 24.5641 114.812 24.2519 114.641C23.9398 114.469 23.6978 114.461 23.5261 114.617L21.8168 116.352C21.3485 116.82 21.0832 117.449 21.0207 118.238C20.9583 119.027 21.0793 119.887 21.3837 120.816C21.688 121.746 22.1759 122.73 22.8471 123.77C23.5183 124.809 24.3222 125.797 25.2588 126.734C26.1954 127.672 27.1827 128.477 28.2207 129.148C29.2588 129.82 30.2422 130.312 31.171 130.625C32.0998 130.938 32.9583 131.062 33.7466 131C34.5349 130.938 35.1632 130.672 35.6315 130.203L37.3641 128.469C37.5202 128.312 37.5124 128.074 37.3407 127.754C37.169 127.434 36.8802 127.145 36.4744 126.887C36.0685 126.629 35.6549 126.5 35.2334 126.5H32.9856L31.4637 127.438C30.7612 127.25 29.8949 126.742 28.8646 125.914C27.8344 125.086 26.9056 124.156 26.0783 123.125C25.251 122.094 24.7437 121.227 24.5563 120.523L25.4929 119ZM34.4373 122.75L35.9593 123.008C35.8344 121.133 35.1085 119.531 33.7817 118.203C32.4549 116.875 30.8627 116.148 29.0051 116.023L29.2393 117.547C30.5973 117.719 31.7602 118.289 32.728 119.258C33.6959 120.227 34.2656 121.391 34.4373 122.75ZM29.5202 119.117L29.8012 120.805C30.41 121.102 30.8705 121.562 31.1827 122.188L32.8685 122.469C32.6656 121.641 32.2637 120.926 31.6627 120.324C31.0617 119.723 30.3476 119.32 29.5202 119.117ZM28.49 113L28.7476 114.523C30.3085 114.555 31.7485 114.965 33.0676 115.754C34.3866 116.543 35.4402 117.598 36.2285 118.918C37.0168 120.238 37.4266 121.68 37.4578 123.242L38.9798 123.5C38.9798 122.078 38.7027 120.719 38.1485 119.422C37.5944 118.125 36.849 117.008 35.9124 116.07C34.9759 115.133 33.8598 114.387 32.5641 113.832C31.2685 113.277 29.9105 113 28.49 113Z" fill="#43FFD2"/>
</g>
</g>
</g>
<defs>
<filter id="filter0_b_1_37" x="-20" y="-20" width="100" height="194" filterUnits="userSpaceOnUse" color-interpolation-filters="sRGB">
<feFlood flood-opacity="0" result="BackgroundImageFix"/>
<feGaussianBlur in="BackgroundImageFix" stdDeviation="10"/>
<feComposite in2="SourceAlpha" operator="in" result="effect1_backgroundBlur_1_37"/>
<feBlend mode="normal" in="SourceGraphic" in2="effect1_backgroundBlur_1_37" result="shape"/>
</filter>
</defs>
</svg>
