<svg width="40" height="40" viewBox="0 0 40 40" fill="none" xmlns="http://www.w3.org/2000/svg">
<g id="Group 4">
<path id="Vector" d="M33.3487 40H6.65669C3.3202 40 2.44174 39.5117 1.4652 38.5352C0.488669 37.5586 -0.0162915 36.6667 0.000401108 33.3333V6.66667C0.000401108 3.33333 0.488669 2.44141 1.4652 1.46484C2.44174 0.488281 3.3202 0 6.65669 0H33.3487C34.7288 0 36.7075 0.0207356 38.3534 1.66667C39.9993 3.3126 39.9993 5.28646 39.9993 6.66667V33.3333C40.0217 36.6667 39.511 37.5586 38.5345 38.5352C37.558 39.5117 36.6852 40 33.3487 40ZM12.5001 15V11.25C12.5001 10.5469 12.2852 9.85677 11.8555 9.17969C11.4259 8.5026 10.9506 8.02083 10.4298 7.73438C9.90898 7.44792 9.50535 7.4349 9.2189 7.69531L6.36741 10.5859C5.58618 11.3672 5.14349 12.4154 5.03932 13.7305C4.93516 15.0456 5.13698 16.4779 5.64478 18.0273C6.15258 19.5768 6.96635 21.2174 8.08611 22.9492C9.20588 24.681 10.547 26.3281 12.1094 27.8906C13.6719 29.4531 15.319 30.7943 17.0507 31.9141C18.7824 33.0339 20.423 33.8542 21.9725 34.375C23.5219 34.8958 24.9541 35.1042 26.2692 35C27.5843 34.8958 28.6324 34.4531 29.4137 33.6719L32.3042 30.7812C32.5646 30.5208 32.5516 30.1237 32.2651 29.5898C31.9787 29.056 31.4969 28.5742 30.8199 28.1445C30.1428 27.7148 29.4527 27.5 28.7496 27.5H24.9997L22.4607 29.0625C21.2889 28.75 19.8436 27.9036 18.1249 26.5234C16.4062 25.1432 14.8568 23.5938 13.4766 21.875C12.0964 20.1562 11.2501 18.7109 10.9376 17.5391L12.5001 15ZM27.4215 21.25L29.9605 21.6797C29.7522 18.5547 28.5413 15.8854 26.3278 13.6719C24.1143 11.4583 21.4581 10.2474 18.3593 10.0391L18.7499 12.5781C21.0154 12.8646 22.9555 13.8151 24.57 15.4297C26.1846 17.0443 27.1351 18.9844 27.4215 21.25ZM19.2186 15.1953L19.6874 18.0078C20.703 18.5026 21.4712 19.2708 21.992 20.3125L24.8044 20.7812C24.4659 19.401 23.7953 18.2096 22.7927 17.207C21.7902 16.2044 20.5988 15.5339 19.2186 15.1953ZM17.4999 5L17.9296 7.53906C20.5337 7.59115 22.936 8.27474 25.1364 9.58984C27.3369 10.9049 29.0946 12.6628 30.4097 14.8633C31.7248 17.0638 32.4084 19.4661 32.4604 22.0703L34.9994 22.5C34.9994 20.1302 34.5372 17.8646 33.6128 15.7031C32.6883 13.5417 31.4448 11.6797 29.8824 10.1172C28.3199 8.55469 26.458 7.3112 24.2966 6.38672C22.1352 5.46224 19.8696 5 17.4999 5Z" fill="#43FFD2"/>
</g>
</svg>
