<svg width="648" height="195" viewBox="0 0 648 195" fill="none" xmlns="http://www.w3.org/2000/svg">
<path d="M0.6 -1.23978e-05H81V27.2H36.4V68.4H44C76 68.4 92 84 92 115.2C92 127.733 89.8 137.467 85.4 144.4C81.1333 151.2 75.2667 155.867 67.8 158.4C60.4667 160.8 51.4667 162 40.8 162H0.6V-1.23978e-05ZM41 138.6C47.4 138.6 51.9333 136.867 54.6 133.4C57.4 129.8 58.8 124.133 58.8 116.4C58.8 108.933 57.5333 103.2 55 99.2C52.4667 95.2 47.6667 93.2 40.6 93.2H36.4V138.6H41ZM115.194 170.2C125.594 170.467 133.394 169.333 138.594 166.8C143.794 164.267 146.394 159.733 146.394 153.2C146.394 151.2 146.06 148.667 145.394 145.6L108.994 -1.23978e-05H142.194L156.194 66.6L162.794 110L167.594 66.4L179.394 -1.23978e-05H212.994L179.394 151C176.727 163.4 173.194 172.6 168.794 178.6C164.394 184.733 158.127 188.867 149.994 191C141.994 193.133 130.394 194.067 115.194 193.8V170.2ZM235.936 -1.23978e-05H271.736V64.2H275.336L299.136 -1.23978e-05H334.736L305.136 76L335.736 162H298.936L275.336 91.4H271.736V162H235.936V-1.23978e-05ZM357.789 -1.23978e-05H430.589V24.4H393.589V64.6H421.789V89.4H393.589V137.8H430.989V162H357.789V-1.23978e-05ZM469.842 26.6H445.442V-1.23978e-05H530.042V26.6H505.842V162H469.842V26.6ZM552.905 -1.23978e-05H588.705V68.4H596.705C628.571 68.4 644.505 84 644.505 115.2C644.505 127.733 642.305 137.467 637.905 144.4C633.638 151.2 627.838 155.867 620.505 158.4C613.171 160.8 604.171 162 593.505 162H552.905V-1.23978e-05ZM658.105 -1.23978e-05H693.905V162H658.105V-1.23978e-05ZM593.705 138.6C599.971 138.6 604.505 136.8 607.305 133.2C610.105 129.6 611.505 123.933 611.505 116.2C611.505 108.867 610.238 103.2 607.705 99.2C605.171 95.2 600.371 93.2 593.305 93.2H588.705V138.6H593.705Z" fill="#0A1717"/>
</svg>
