<svg width="787" height="200" viewBox="0 0 787 200" fill="none" xmlns="http://www.w3.org/2000/svg">
<path d="M0.6 139.4H5.2C13.2 136.867 19.5333 129.533 24.2 117.4C28.8667 105.267 32.1333 86 34 59.6L38.4 2.99999H113.8V139.4H132V200H108.4L106.6 165H27.2L25.2 200H0.6V139.4ZM80.4 139.4V28.4H65.4L63.6 63.2C62.5333 81.0667 60.7333 95.0667 58.2 105.2C55.8 115.2 53.1333 122.4 50.2 126.8C47.2667 131.2 43.5333 135.4 39 139.4H80.4ZM202.072 167.4C184.605 167.4 172.139 162.933 164.672 154C157.205 144.933 153.472 131.6 153.472 114V53.8C153.472 36.2 157.205 23 164.672 14.2C172.139 5.26666 184.605 0.799992 202.072 0.799992C219.672 0.799992 232.205 5.26666 239.672 14.2C247.272 23.1333 251.072 36.3333 251.072 53.8V114C251.072 131.6 247.272 144.933 239.672 154C232.205 162.933 219.672 167.4 202.072 167.4ZM202.072 142C207.139 142 210.472 140.333 212.072 137C213.672 133.533 214.472 128.867 214.472 123V45C214.472 39 213.672 34.3333 212.072 31C210.472 27.6667 207.139 26 202.072 26C197.272 26 194.072 27.7333 192.472 31.2C190.872 34.5333 190.072 39.1333 190.072 45V123C190.072 128.867 190.805 133.533 192.272 137C193.739 140.333 197.005 142 202.072 142ZM280.859 2.99999H377.859V165H342.659V28.6H316.059V165H280.859V2.99999ZM456.353 167.4C438.886 167.4 426.42 162.933 418.953 154C411.486 144.933 407.753 131.6 407.753 114V53.8C407.753 36.2 411.486 23 418.953 14.2C426.42 5.26666 438.886 0.799992 456.353 0.799992C473.953 0.799992 486.486 5.26666 493.953 14.2C501.553 23.1333 505.353 36.3333 505.353 53.8V114C505.353 131.6 501.553 144.933 493.953 154C486.486 162.933 473.953 167.4 456.353 167.4ZM456.353 142C461.42 142 464.753 140.333 466.353 137C467.953 133.533 468.753 128.867 468.753 123V45C468.753 39 467.953 34.3333 466.353 31C464.753 27.6667 461.42 26 456.353 26C451.553 26 448.353 27.7333 446.753 31.2C445.153 34.5333 444.353 39.1333 444.353 45V123C444.353 128.867 445.086 133.533 446.553 137C448.02 140.333 451.286 142 456.353 142ZM524.541 139.8C532.141 139.933 537.341 138.933 540.141 136.8C542.941 134.667 544.874 130.267 545.941 123.6C547.141 116.8 548.474 103.467 549.941 83.6L550.541 75.4L555.741 2.99999H641.541V165H605.941V30.4H588.141L584.941 82.2C583.207 107.133 581.341 124.733 579.341 135C577.341 145.133 573.074 152.733 566.541 157.8C560.141 162.733 549.541 165.2 534.741 165.2C530.341 165.2 526.941 165.133 524.541 165V139.8ZM674.991 2.99999H710.791V68.6H735.791V2.99999H771.791V165H735.791V94.2H710.791V165H674.991V2.99999ZM805.061 2.99999H833.261V95.8L874.661 2.99999H897.861V165H869.061V70.6L826.861 165H805.061V2.99999ZM945.03 29.6H920.63V2.99999H1005.23V29.6H981.03V165H945.03V29.6ZM1027.49 2.99999H1100.29V27.4H1063.29V67.6H1091.49V92.4H1063.29V140.8H1100.69V165H1027.49V2.99999ZM1114.35 139.8C1121.95 139.933 1127.15 138.933 1129.95 136.8C1132.75 134.667 1134.68 130.267 1135.75 123.6C1136.95 116.8 1138.28 103.467 1139.75 83.6L1140.35 75.4L1145.55 2.99999H1231.35V165H1195.75V30.4H1177.95L1174.75 82.2C1173.01 107.133 1171.15 124.733 1169.15 135C1167.15 145.133 1162.88 152.733 1156.35 157.8C1149.95 162.733 1139.35 165.2 1124.55 165.2C1120.15 165.2 1116.75 165.133 1114.35 165V139.8ZM1264.8 2.99999H1300.6V71.4H1308.6C1340.33 71.4 1356.2 87 1356.2 118.2C1356.2 130.733 1354 140.467 1349.6 147.4C1345.33 154.2 1339.46 158.867 1332 161.4C1324.66 163.8 1315.73 165 1305.2 165H1264.8V2.99999ZM1305.4 141.6C1311.66 141.6 1316.2 139.8 1319 136.2C1321.8 132.6 1323.2 126.933 1323.2 119.2C1323.2 111.867 1321.93 106.2 1319.4 102.2C1316.86 98.2 1312.06 96.2 1305 96.2H1300.6V141.6H1305.4ZM1383.93 2.99999H1419.73V68.6H1444.73V2.99999H1480.73V165H1444.73V94.2H1419.73V165H1383.93V2.99999ZM1559.8 167.4C1542.33 167.4 1529.87 162.933 1522.4 154C1514.93 144.933 1511.2 131.6 1511.2 114V53.8C1511.2 36.2 1514.93 23 1522.4 14.2C1529.87 5.26666 1542.33 0.799992 1559.8 0.799992C1577.4 0.799992 1589.93 5.26666 1597.4 14.2C1605 23.1333 1608.8 36.3333 1608.8 53.8V114C1608.8 131.6 1605 144.933 1597.4 154C1589.93 162.933 1577.4 167.4 1559.8 167.4ZM1559.8 142C1564.87 142 1568.2 140.333 1569.8 137C1571.4 133.533 1572.2 128.867 1572.2 123V45C1572.2 39 1571.4 34.3333 1569.8 31C1568.2 27.6667 1564.87 26 1559.8 26C1555 26 1551.8 27.7333 1550.2 31.2C1548.6 34.5333 1547.8 39.1333 1547.8 45V123C1547.8 128.867 1548.53 133.533 1550 137C1551.47 140.333 1554.73 142 1559.8 142Z" fill="#0A1717"/>
</svg>
