<svg width="591" height="197" viewBox="0 0 591 197" fill="none" xmlns="http://www.w3.org/2000/svg">
<path d="M74.6 162H-15.4V-1.23978e-05H20.4V137.8H47.6V-1.23978e-05H83.4V137.8H105.4V197H79.2L74.6 162ZM129.109 -1.23978e-05H171.309C181.843 -1.23978e-05 190.776 1.13332 198.109 3.39999C205.576 5.53333 211.576 9.73333 216.109 16C220.643 22.2667 222.909 31.0667 222.909 42.4C222.909 52 220.843 59.4667 216.709 64.8C212.576 70.1333 206.709 73.5333 199.109 75C208.443 76.2 215.576 80.1333 220.509 86.8C225.443 93.4667 227.909 102.533 227.909 114C227.909 146 211.576 162 178.909 162H129.109V-1.23978e-05ZM171.909 64.8C179.509 64.8 184.643 63.0667 187.309 59.6C190.109 56.1333 191.509 50.7333 191.509 43.4C191.509 37 189.776 32.2 186.309 29C182.843 25.6667 177.776 24 171.109 24H164.909V64.8H171.909ZM172.509 137C180.109 137 185.443 135.133 188.509 131.4C191.709 127.533 193.309 121.533 193.309 113.4C193.309 104.2 191.709 97.7333 188.509 94C185.443 90.2667 180.043 88.4 172.309 88.4H164.909V137H172.509ZM254.688 -1.23978e-05H327.488V24.4H290.488V64.6H318.688V89.4H290.488V137.8H327.888V162H254.688V-1.23978e-05ZM366.741 26.6H342.341V-1.23978e-05H426.941V26.6H402.741V162H366.741V26.6ZM449.803 -1.23978e-05H485.603V68.4H493.603C525.47 68.4 541.403 84 541.403 115.2C541.403 127.733 539.203 137.467 534.803 144.4C530.536 151.2 524.736 155.867 517.403 158.4C510.07 160.8 501.07 162 490.403 162H449.803V-1.23978e-05ZM555.003 -1.23978e-05H590.803V162H555.003V-1.23978e-05ZM490.603 138.6C496.87 138.6 501.403 136.8 504.203 133.2C507.003 129.6 508.403 123.933 508.403 116.2C508.403 108.867 507.136 103.2 504.603 99.2C502.07 95.2 497.27 93.2 490.203 93.2H485.603V138.6H490.603Z" fill="#0A1717"/>
</svg>
